<svg xmlns="http://www.w3.org/2000/svg" version="1.1" xmlns:xlink="http://www.w3.org/1999/xlink" xmlns:svgjs="http://svgjs.dev/svgjs" viewBox="0 0 800 800"><defs><linearGradient x1="50%" y1="0%" x2="50%" y2="100%" id="nnneon-grad"><stop stop-color="hsl(206, 75%, 49%)" stop-opacity="1" offset="0%"></stop><stop stop-color="hsl(331, 90%, 56%)" stop-opacity="1" offset="100%"></stop></linearGradient><filter id="nnneon-filter" x="-100%" y="-100%" width="400%" height="400%" filterUnits="objectBoundingBox" primitiveUnits="userSpaceOnUse" color-interpolation-filters="sRGB">
	<feGaussianBlur stdDeviation="0 0" x="0%" y="0%" width="100%" height="100%" in="SourceGraphic" edgeMode="none" result="blur"></feGaussianBlur></filter><filter id="nnneon-filter2" x="-100%" y="-100%" width="400%" height="400%" filterUnits="objectBoundingBox" primitiveUnits="userSpaceOnUse" color-interpolation-filters="sRGB">
	<feGaussianBlur stdDeviation="57 38" x="0%" y="0%" width="100%" height="100%" in="SourceGraphic" edgeMode="none" result="blur"></feGaussianBlur></filter></defs><g stroke-width="41" stroke="url(#nnneon-grad)" fill="none" transform="rotate(181, 400, 400)"><path d="M380.4086234415713 117.43924004545732C392.53177669806564 110.4411948883471 407.4682538195125 110.4411948883471 419.5914070760068 117.44119918463906L634.9086397039571 241.75445768243094C647.0317929604514 248.75250283954108 654.5000315211748 261.68869885645006 654.5000315211748 275.6867483098522V524.3132653054361C654.5000315211748 538.3113147588382 647.0317929604514 551.2475107757471 634.9086397039571 558.2475150720389L419.5914070760068 682.5607735698308C407.4682538195125 689.558818726941 392.53177669806564 689.558818726941 380.4086234415713 682.5588144306491L165.09139081362105 558.2455559328573C152.9682375571267 551.2475107757471 145.4999989964033 538.3113147588382 145.4999989964033 524.3132653054361V275.6867483098522C145.4999989964033 261.68869885645006 152.9682375571267 248.75250283954108 165.09139081362105 241.7524985432492L380.4086234415713 117.43924004545732Z " filter="url(#nnneon-filter)"></path><path d="M380.4086234415713 117.43924004545732C392.53177669806564 110.4411948883471 407.4682538195125 110.4411948883471 419.5914070760068 117.44119918463906L634.9086397039571 241.75445768243094C647.0317929604514 248.75250283954108 654.5000315211748 261.68869885645006 654.5000315211748 275.6867483098522V524.3132653054361C654.5000315211748 538.3113147588382 647.0317929604514 551.2475107757471 634.9086397039571 558.2475150720389L419.5914070760068 682.5607735698308C407.4682538195125 689.558818726941 392.53177669806564 689.558818726941 380.4086234415713 682.5588144306491L165.09139081362105 558.2455559328573C152.9682375571267 551.2475107757471 145.4999989964033 538.3113147588382 145.4999989964033 524.3132653054361V275.6867483098522C145.4999989964033 261.68869885645006 152.9682375571267 248.75250283954108 165.09139081362105 241.7524985432492L380.4086234415713 117.43924004545732Z " filter="url(#nnneon-filter2)" opacity="0"></path><path d="M380.4086234415713 117.43924004545732C392.53177669806564 110.4411948883471 407.4682538195125 110.4411948883471 419.5914070760068 117.44119918463906L634.9086397039571 241.75445768243094C647.0317929604514 248.75250283954108 654.5000315211748 261.68869885645006 654.5000315211748 275.6867483098522V524.3132653054361C654.5000315211748 538.3113147588382 647.0317929604514 551.2475107757471 634.9086397039571 558.2475150720389L419.5914070760068 682.5607735698308C407.4682538195125 689.558818726941 392.53177669806564 689.558818726941 380.4086234415713 682.5588144306491L165.09139081362105 558.2455559328573C152.9682375571267 551.2475107757471 145.4999989964033 538.3113147588382 145.4999989964033 524.3132653054361V275.6867483098522C145.4999989964033 261.68869885645006 152.9682375571267 248.75250283954108 165.09139081362105 241.7524985432492L380.4086234415713 117.43924004545732Z " filter="url(#nnneon-filter2)" opacity="0"></path><path d="M380.4086234415713 117.43924004545732C392.53177669806564 110.4411948883471 407.4682538195125 110.4411948883471 419.5914070760068 117.44119918463906L634.9086397039571 241.75445768243094C647.0317929604514 248.75250283954108 654.5000315211748 261.68869885645006 654.5000315211748 275.6867483098522V524.3132653054361C654.5000315211748 538.3113147588382 647.0317929604514 551.2475107757471 634.9086397039571 558.2475150720389L419.5914070760068 682.5607735698308C407.4682538195125 689.558818726941 392.53177669806564 689.558818726941 380.4086234415713 682.5588144306491L165.09139081362105 558.2455559328573C152.9682375571267 551.2475107757471 145.4999989964033 538.3113147588382 145.4999989964033 524.3132653054361V275.6867483098522C145.4999989964033 261.68869885645006 152.9682375571267 248.75250283954108 165.09139081362105 241.7524985432492L380.4086234415713 117.43924004545732Z "></path></g></svg>